<svg xmlns="http://www.w3.org/2000/svg" xmlns:xlink="http://www.w3.org/1999/xlink" width="50" height="50" viewBox="0 0 50 50">
    <defs>
        <path id="a" d="M20.92 29.29c.35 0 .634-.292.634-.651v-7.16c0-.36-.284-.65-.634-.65a.643.643 0 0 0-.634.65v7.16c0 .36.284.65.634.65zm3.17 0c.35 0 .633-.292.633-.651v-7.16c0-.36-.283-.65-.634-.65a.643.643 0 0 0-.633.65v7.16c0 .36.283.65.633.65zm3.17 0c.35 0 .633-.292.633-.651v-7.16c0-.36-.284-.65-.634-.65a.643.643 0 0 0-.634.65v7.16c0 .36.284.65.634.65zm5.07-11.716h-3.803v-.651c0-1.438-1.135-2.604-2.536-2.604h-3.803c-1.4 0-2.536 1.166-2.536 2.604v.65h-3.804a.643.643 0 0 0-.634.652c0 .359.284.65.634.65h1.268V29.94c0 1.438 1.135 2.604 2.536 2.604h8.875c1.4 0 2.536-1.166 2.536-2.604V18.875h1.268c.35 0 .634-.291.634-.65 0-.36-.284-.651-.634-.651zm-11.41-.651c0-.72.567-1.302 1.268-1.302h3.803c.7 0 1.268.583 1.268 1.302v.638h-6.34v-.638zm8.875 13.017c0 .72-.568 1.302-1.268 1.302h-8.875c-.7 0-1.268-.583-1.268-1.302V18.875h11.41V29.94z"/>
    </defs>
    <g fill="none" fill-rule="evenodd" transform="translate(.553 .533)">
        <path fill="#F1F1F1" d="M7 0h35.447a7 7 0 0 1 7 7v35.467a7 7 0 0 1-7 7H7a7 7 0 0 1-7-7V7a7 7 0 0 1 7-7z"/>
        <use fill="#012D74" fill-rule="nonzero" xlink:href="#a"/>
    </g>
</svg>
