<svg xmlns="http://www.w3.org/2000/svg" xmlns:xlink="http://www.w3.org/1999/xlink" width="50" height="50" viewBox="0 0 50 50">
    <defs>
        <path id="a" d="M32.94 30.578l-10.235.015c-.733 0-1.17-.181-1.658-.678l-4.003-4.15c-.252-.241-.555-.603-.561-.957-.008-.41.356-.874.666-1.195l3.895-4.07c.501-.507.874-.654 1.661-.654l10.245-.015c.432.002.73.224.902.412.235.254.374.588.374.9l.012 9.104c0 .609-.554 1.288-1.299 1.288zm2.554-10.395c0-1.3-1.075-2.61-2.546-2.61l-10.244.014c-1.075 0-1.783.253-2.552 1.034l-3.907 4.08c-1.416 1.461-1.31 2.824-.065 4.015l3.964 4.114c.784.796 1.555 1.063 2.561 1.063l10.236-.013c1.467 0 2.565-1.29 2.565-2.59l-.012-9.107zm-5.251 1.49a.623.623 0 0 0-.897 0l-2.088 2.142-2.087-2.143a.623.623 0 0 0-.896 0 .664.664 0 0 0 0 .92l2.087 2.144-2.087 2.143a.664.664 0 0 0 0 .92.624.624 0 0 0 .896 0l2.087-2.142 2.088 2.142a.624.624 0 0 0 .897 0 .664.664 0 0 0 0-.92l-2.087-2.143 2.087-2.144a.664.664 0 0 0 0-.92"/>
    </defs>
    <g fill="none" fill-rule="evenodd" transform="translate(.553)">
        <path fill="#F1F1F1" d="M7 0h35.447a7 7 0 0 1 7 7v35.467a7 7 0 0 1-7 7H7a7 7 0 0 1-7-7V7a7 7 0 0 1 7-7z"/>
        <use fill="#012D74" xlink:href="#a"/>
    </g>
</svg>
