<svg xmlns="http://www.w3.org/2000/svg" xmlns:xlink="http://www.w3.org/1999/xlink" width="16" height="16" viewBox="0 0 16 16">
    <defs>
        <path id="a" d="M8.773 2a6 6 0 0 0-3.56 1.17.51.51 0 1 0 .59.83 5 5 0 1 1-2 4.4l.81.82a.51.51 0 0 0 .39.13.51.51 0 0 0 .35-.86l-1.68-1.66a.47.47 0 0 0-.35-.15.61.61 0 0 0-.32.15L1.373 8.5a.5.5 0 0 0 0 .71.5.5 0 0 0 .71 0l.71-.74A6 6 0 1 0 8.773 2z"/>
    </defs>
    <g fill="none" fill-rule="evenodd">
        <mask id="b" fill="#ff7800">
            <use xlink:href="#a"/>
        </mask>
        <use fill="#ff7800" fill-rule="nonzero" xlink:href="#a"/>
        <g fill="#ff7800" mask="url(#b)">
            <path d="M0 0h16v16H0z"/>
        </g>
    </g>
</svg>
